<?xml version="1.0" standalone="no"?>
<!DOCTYPE svg PUBLIC "-//W3C//DTD SVG 20010904//EN"
 "http://www.w3.org/TR/2001/REC-SVG-20010904/DTD/svg10.dtd">
<svg version="1.0" xmlns="http://www.w3.org/2000/svg"
 width="1254.000000pt" height="1254.000000pt" viewBox="0 0 1254.000000 1254.000000"
 preserveAspectRatio="xMidYMid meet">
<metadata>
Created by potrace 1.16, written by Peter Selinger 2001-2019
</metadata>
<g transform="translate(0.000000,1254.000000) scale(0.100000,-0.100000)"
fill="#000000" stroke="none">
<path d="M6315 11019 c-40 -24 -65 -54 -75 -90 -12 -44 -4 -70 38 -119 36 -42
53 -34 21 9 -19 26 -21 33 -9 44 10 10 11 9 5 -3 -6 -12 -5 -12 5 -3 7 6 19 9
27 6 12 -5 12 -7 1 -14 -8 -6 0 -9 24 -9 20 0 40 -5 43 -10 4 -7 14 -6 28 1
19 9 18 7 -3 -10 -14 -11 -40 -21 -57 -21 -32 0 -48 -23 -22 -32 7 -2 7 -11 0
-28 l-10 -25 -1 25 c-1 23 -2 23 -10 5 -5 -11 -21 -65 -36 -120 -43 -157 -120
-326 -190 -412 -22 -28 -23 -28 -38 -8 -27 37 -87 164 -89 190 -4 54 -22 28
-24 -35 -1 -36 -6 -78 -11 -95 -7 -22 -8 -10 -4 44 4 59 2 73 -8 69 -7 -2 -19
-33 -26 -69 -19 -94 -36 -149 -44 -149 -5 0 -42 36 -83 81 -79 84 -145 177
-192 267 -15 28 -31 52 -37 52 -5 0 -7 4 -3 10 3 5 12 7 19 4 10 -4 16 7 21
35 4 24 11 38 17 35 10 -6 7 -43 -7 -94 l-7 -25 21 24 c23 26 27 62 10 110
-12 35 -70 71 -115 71 -34 0 -88 -33 -100 -62 -13 -29 -10 -94 6 -124 19 -34
70 -55 108 -44 20 5 32 5 32 -1 0 -5 -11 -9 -25 -9 -29 0 -31 -16 -10 -77 8
-23 40 -140 71 -259 30 -119 60 -227 64 -240 6 -16 5 -26 -6 -35 -18 -15 -14
-54 5 -54 8 0 16 7 18 15 4 13 3 13 -7 0 -9 -13 -11 -12 -8 5 3 15 10 19 28
17 14 -1 70 6 126 17 55 11 143 23 195 26 52 3 115 8 142 11 26 2 47 1 47 -4
0 -5 -30 -10 -67 -11 -98 -2 -265 -21 -283 -32 -11 -7 -9 -8 10 -5 147 28
1092 33 1165 7 27 -10 24 -10 -20 -6 -27 3 -81 8 -120 10 -65 4 -63 3 25 -10
52 -7 115 -20 140 -29 32 -11 48 -12 57 -4 17 14 16 28 -1 42 -13 9 -12 24 8
106 21 84 97 362 126 460 12 43 13 40 -2 40 -13 0 -60 -159 -136 -450 -19 -74
-36 -136 -36 -137 -4 -5 -218 26 -224 31 -3 3 17 6 44 7 37 0 44 3 29 9 -11 5
-15 9 -10 9 10 1 15 25 18 86 1 18 10 35 22 42 19 12 19 12 1 13 -17 0 -16 1
3 18 12 9 23 25 25 34 1 10 25 41 53 70 57 60 133 170 166 240 22 46 22 46 63
41 36 -5 44 -1 77 30 32 30 37 40 37 78 -1 53 -16 84 -56 110 -59 39 -151 12
-178 -53 -16 -37 -12 -55 19 -94 l24 -29 2 50 c1 28 4 40 6 27 5 -23 35 -46
47 -35 3 3 6 2 6 -4 0 -19 45 -7 63 17 l19 25 -5 -24 c-4 -17 -3 -21 5 -13 6
6 11 28 10 49 0 35 0 36 9 13 14 -33 4 -79 -23 -107 -23 -25 -50 -31 -45 -11
1 7 -8 13 -20 14 -13 1 -29 7 -38 14 -12 10 -16 9 -21 -3 -3 -9 -2 -22 2 -28
5 -9 2 -10 -9 -6 -13 5 -24 -5 -43 -36 -96 -153 -181 -258 -254 -309 -50 -36
-66 -39 -67 -16 -2 16 1 17 13 7 23 -19 25 -6 10 62 -8 35 -17 86 -21 112 -5
36 -10 47 -21 43 -8 -3 -14 -1 -14 3 0 5 6 11 13 14 9 3 9 7 0 17 -13 14 -48
5 -38 -10 3 -5 1 -10 -5 -10 -6 0 -9 -4 -6 -9 4 -5 2 -11 -3 -13 -4 -1 -25
-34 -46 -73 -21 -38 -44 -76 -51 -83 -8 -7 -12 -9 -9 -6 2 4 -7 20 -21 37 -34
40 -74 121 -117 237 -34 92 -77 244 -77 272 0 7 15 20 33 28 23 11 37 28 51
63 19 46 19 47 0 93 -10 26 -31 56 -45 67 -32 23 -106 32 -134 16z m-15 -54
c-13 -14 -26 -22 -29 -19 -3 3 5 14 18 25 33 27 39 24 11 -6z m183 -95 c-6
-28 -44 -90 -55 -90 -4 0 1 14 12 32 10 17 16 36 13 41 -3 6 -1 7 5 3 12 -7
17 10 14 49 -2 16 0 17 8 5 5 -8 7 -26 3 -40z m-156 -182 c-3 -8 -6 -5 -6 6
-1 11 2 17 5 13 3 -3 4 -12 1 -19z m-10 -40 c-3 -8 -6 -5 -6 6 -1 11 2 17 5
13 3 -3 4 -12 1 -19z m-13 -52 c-3 -15 -8 -25 -11 -23 -2 3 -1 17 3 31 3 15 8
25 11 23 2 -3 1 -17 -3 -31z m-782 -40 c10 -16 -13 -27 -44 -20 -18 3 -28 1
-28 -6 0 -16 -18 -3 -32 23 -9 19 -9 20 3 10 11 -9 19 -8 34 3 20 15 55 10 67
-10z m37 -126 l-1 -25 -8 25 c-4 14 -8 32 -9 40 -1 13 0 13 9 0 5 -8 9 -26 9
-40z m8 -52 c-3 -8 -6 -5 -6 6 -1 11 2 17 5 13 3 -3 4 -12 1 -19z m632 -90
c-7 -13 -25 -42 -40 -64 -16 -23 -25 -45 -21 -49 4 -3 1 -5 -7 -3 -7 2 -15 -2
-18 -9 -3 -8 3 -11 17 -8 11 2 18 0 15 -6 -4 -5 -11 -7 -16 -4 -5 4 -6 -6 -3
-23 3 -15 1 -55 -5 -88 -8 -43 -8 -60 0 -63 8 -2 7 -6 -2 -12 -9 -5 10 -9 51
-10 59 -2 57 -3 -30 -9 -282 -21 -279 -21 -230 -7 35 10 40 14 25 19 -16 4
-21 14 -23 44 -2 21 -5 40 -7 43 -3 2 0 10 5 16 7 9 -1 17 -31 30 -50 23 -63
40 -15 20 65 -28 147 -16 193 27 13 12 27 17 35 12 7 -4 10 -4 6 1 -4 4 8 26
26 49 18 22 43 58 55 79 24 40 39 51 20 15z m588 -10 c-3 -8 -6 -5 -6 6 -1 11
2 17 5 13 3 -3 4 -12 1 -19z m10 -50 c-3 -7 -5 -2 -5 12 0 14 2 19 5 13 2 -7
2 -19 0 -25z m-657 8 c0 -2 -8 -10 -17 -17 -16 -13 -17 -12 -4 4 13 16 21 21
21 13z m667 -48 c-3 -8 -6 -5 -6 6 -1 11 2 17 5 13 3 -3 4 -12 1 -19z m-1210
-10 c-3 -8 -6 -5 -6 6 -1 11 2 17 5 13 3 -3 4 -12 1 -19z m209 -39 c3 -6 -5
-3 -20 6 -14 10 -26 19 -26 22 0 7 39 -17 46 -28z m-199 -1 c-3 -8 -6 -5 -6 6
-1 11 2 17 5 13 3 -3 4 -12 1 -19z m1337 -1 c-5 -14 -93 -61 -101 -54 -2 2 10
10 26 17 16 6 37 20 47 31 20 22 36 25 28 6z m-1327 -39 c-3 -8 -6 -5 -6 6 -1
11 2 17 5 13 3 -3 4 -12 1 -19z m600 -184 c-3 -3 -12 -4 -19 -1 -8 3 -5 6 6 6
11 1 17 -2 13 -5z m858 -65 c11 -17 2 -18 -19 -3 -17 12 -17 14 -4 14 9 0 20
-5 23 -11z"/>
<path d="M6719 10531 c-33 -34 -35 -47 -14 -98 19 -44 29 -36 27 20 0 23 2 35
5 27 12 -32 39 -48 59 -37 17 10 18 9 4 -8 -13 -16 -13 -18 0 -13 8 2 20 20
27 39 11 31 12 32 12 8 1 -15 -8 -38 -19 -52 -26 -32 -25 -41 1 -27 27 15 51
73 43 106 -8 29 -57 64 -92 64 -13 0 -37 -13 -53 -29z"/>
<path d="M5861 10524 c-23 -30 -27 -82 -8 -107 16 -22 82 -36 75 -16 -3 8 -17
14 -31 14 -22 -1 -27 4 -27 25 0 14 4 20 8 15 4 -6 24 -10 45 -10 30 0 42 5
53 25 15 25 15 24 9 -12 -7 -44 10 -52 20 -10 7 36 -8 78 -34 91 -37 20 -88
13 -110 -15z"/>
<path d="M7139 10368 c-13 -28 -29 -56 -34 -62 -30 -32 -55 -77 -55 -103 0
-15 -4 -35 -10 -43 -5 -9 -5 -17 1 -20 6 -4 4 -20 -5 -41 -8 -19 -15 -59 -17
-89 -1 -30 -6 -65 -10 -77 -6 -15 -3 -23 8 -27 20 -8 16 -16 38 79 10 44 29
116 42 160 13 44 28 94 33 110 4 17 17 60 28 98 11 37 16 67 12 67 -3 0 -17
-23 -31 -52z"/>
<path d="M5340 10317 c-534 -186 -1040 -537 -1402 -972 -160 -194 -319 -453
-424 -693 -109 -250 -183 -503 -235 -807 -28 -163 -32 -206 -36 -460 -6 -311
7 -482 53 -714 54 -275 168 -644 260 -849 13 -29 24 -55 24 -59 0 -3 13 -35
30 -70 16 -34 30 -68 30 -73 0 -6 5 -10 10 -10 6 0 10 -9 10 -19 0 -11 7 -26
14 -34 8 -8 25 -43 36 -78 19 -54 21 -81 18 -174 -3 -103 -6 -115 -40 -182
-23 -47 -32 -73 -23 -73 7 0 18 7 25 15 7 8 20 15 29 15 9 0 51 23 94 50 86
55 99 60 71 28 -18 -20 -18 -21 -1 -15 15 6 17 3 12 -13 -7 -21 10 -28 18 -7
3 6 6 0 6 -14 1 -19 9 -28 36 -39 19 -8 35 -17 35 -22 0 -4 6 -8 14 -8 8 0 17
-7 20 -16 4 -11 13 -14 27 -11 17 5 18 3 7 -10 -11 -14 -11 -15 2 -11 8 3 25
-4 37 -15 15 -13 23 -16 23 -8 0 11 3 11 15 1 8 -7 15 -19 15 -26 0 -8 6 -13
13 -11 6 1 11 -6 9 -15 -2 -10 3 -18 11 -18 8 0 28 -15 44 -33 16 -17 46 -48
68 -67 25 -23 17 -10 -26 39 -56 64 -117 141 -152 191 -22 32 40 -37 67 -75
16 -22 95 -105 175 -185 80 -80 144 -148 143 -152 -1 -4 5 -5 13 -2 11 4 13 2
9 -9 -3 -8 0 -18 7 -23 8 -4 10 -3 5 4 -12 20 7 13 39 -13 45 -37 45 -37 120
-89 73 -51 107 -71 238 -141 42 -23 75 -44 72 -47 -3 -2 7 -10 22 -17 26 -10
27 -10 9 4 -28 21 -17 19 53 -13 34 -15 58 -31 54 -36 -4 -4 1 -4 11 0 13 5
17 4 12 -4 -4 -7 -2 -10 7 -6 7 2 48 -8 90 -25 46 -17 79 -25 83 -19 3 5 -3
12 -14 15 -59 15 -250 107 -340 163 -282 176 -477 358 -634 590 -107 159 -140
251 -137 388 l2 94 -41 18 c-50 23 -114 80 -164 147 -21 29 -38 54 -38 56 0 2
-17 35 -38 73 -148 270 -259 638 -314 1045 -30 219 -33 741 -5 939 23 168 72
412 108 540 65 233 142 436 160 424 5 -3 6 2 3 10 -7 19 55 158 67 150 5 -3 6
3 2 12 -5 13 -3 15 7 9 9 -5 11 -4 6 4 -9 13 74 172 86 165 4 -3 6 1 3 8 -6
16 118 213 134 213 17 0 30 25 23 43 -4 11 -1 13 9 7 8 -4 11 -4 6 0 -4 5 0
17 10 27 9 10 12 18 8 18 -4 0 0 9 10 20 10 11 21 17 26 15 4 -3 11 0 15 6 5
8 3 9 -6 4 -8 -5 -11 -3 -8 6 3 8 11 13 17 11 7 -1 10 2 7 7 -4 5 6 22 20 38
l26 28 -16 -27 c-22 -38 -13 -35 15 4 13 17 17 28 10 23 -9 -5 -12 -3 -9 6 3
8 10 14 16 14 5 0 14 4 19 9 5 5 3 6 -4 2 -25 -14 -12 11 30 60 23 28 55 65
70 83 28 34 51 37 27 4 -8 -10 1 -4 19 14 31 28 33 34 23 61 -10 28 -8 32 16
48 23 14 126 97 142 114 9 10 158 110 163 110 3 0 34 17 68 38 106 64 346 171
489 217 59 19 85 35 57 35 -18 0 -19 20 -2 32 6 4 -1 8 -14 8 -24 0 -24 0 -5
15 33 25 -3 18 -136 -28z m-785 -616 c-3 -6 -11 -11 -17 -11 -6 0 -6 6 2 15
14 17 26 13 15 -4z m-212 -213 c-78 -104 -116 -148 -88 -103 21 33 87 115 93
115 3 0 0 -6 -5 -12z m-103 -142 c0 -2 -8 -10 -17 -17 -16 -13 -17 -12 -4 4
13 16 21 21 21 13z m-49 -63 c-5 -10 -17 -27 -26 -38 -16 -19 -17 -19 -3 5 26
46 29 50 34 50 3 0 0 -8 -5 -17z m22 -18 c-3 -9 -8 -14 -10 -11 -3 3 -2 9 2
15 9 16 15 13 8 -4z m-93 -89 c-30 -49 -36 -46 -8 3 12 22 24 38 26 36 3 -2
-6 -20 -18 -39z m-76 -128 c-19 -35 -57 -107 -85 -162 -28 -54 -52 -96 -55
-93 -3 2 9 31 27 63 111 208 138 254 145 254 2 0 -12 -28 -32 -62z m-178 -352
c-32 -73 -55 -114 -40 -71 13 38 67 155 70 152 2 -2 -12 -38 -30 -81z m-77
-177 c-16 -40 -27 -60 -24 -44 8 35 46 127 51 122 2 -2 -10 -37 -27 -78z m-85
-269 c-44 -161 -88 -380 -111 -550 -25 -192 -25 -686 0 -885 31 -238 57 -366
124 -598 14 -49 23 -90 20 -93 -4 -5 -19 42 -64 201 -149 533 -154 1284 -12
1815 36 135 70 243 74 238 2 -2 -12 -59 -31 -128z m-337 -162 c-3 -8 -6 -5 -6
6 -1 11 2 17 5 13 3 -3 4 -12 1 -19z m-10 -50 c-3 -8 -6 -5 -6 6 -1 11 2 17 5
13 3 -3 4 -12 1 -19z m-18 -92 c-7 -36 -14 -64 -17 -61 -2 2 1 34 8 70 7 36
14 64 17 62 2 -3 -2 -34 -8 -71z m-25 -135 c-4 -28 -9 -50 -11 -47 -3 3 -2 28
2 56 4 28 9 49 12 47 2 -3 1 -28 -3 -56z m-23 -182 c-16 -149 -14 -543 4 -701
18 -155 53 -332 96 -491 37 -140 117 -385 134 -412 6 -11 15 -32 19 -47 3 -16
13 -28 21 -28 9 0 12 -6 9 -15 -4 -8 -3 -27 1 -42 5 -21 8 -24 15 -13 6 10 8
4 8 -18 -1 -18 2 -35 5 -39 4 -3 7 7 8 23 1 28 1 29 8 4 5 -17 14 -24 27 -23
18 1 18 1 1 -12 -15 -11 -17 -21 -12 -47 4 -18 14 -42 22 -53 15 -19 15 -19
10 4 -6 23 -5 23 11 8 13 -13 14 -20 4 -29 -17 -17 -15 -31 3 -24 14 5 45 -28
45 -49 0 -5 -4 -3 -10 5 -12 20 -21 9 -13 -18 3 -12 9 -19 15 -16 5 3 14 -8
21 -25 6 -17 15 -31 19 -31 4 0 8 -4 8 -10 0 -22 -19 -8 -29 22 -6 17 -14 29
-16 26 -3 -3 1 -23 9 -44 52 -136 58 -266 16 -377 -12 -32 -24 -57 -26 -54 -2
2 3 21 12 43 9 21 19 78 22 126 7 135 -14 210 -134 465 -168 356 -302 826
-344 1198 -25 229 -22 548 7 770 12 90 15 27 4 -76z m126 -761 c-3 -8 -6 -5
-6 6 -1 11 2 17 5 13 3 -3 4 -12 1 -19z m40 -270 c-3 -7 -5 -2 -5 12 0 14 2
19 5 13 2 -7 2 -19 0 -25z m10 -50 c-3 -8 -6 -5 -6 6 -1 11 2 17 5 13 3 -3 4
-12 1 -19z m10 -60 c-3 -7 -5 -2 -5 12 0 14 2 19 5 13 2 -7 2 -19 0 -25z m107
-384 c3 -8 2 -12 -4 -9 -6 3 -10 10 -10 16 0 14 7 11 14 -7z m189 -69 l6 -30
-14 30 c-16 34 -21 72 -6 45 5 -8 11 -28 14 -45z m-233 30 c0 -8 -4 -15 -10
-15 -5 0 -7 7 -4 15 4 8 8 15 10 15 2 0 4 -7 4 -15z m116 -162 c-4 -5 -56 127
-55 142 0 6 13 -23 30 -64 16 -40 28 -75 25 -78z m-86 69 c0 -15 -2 -15 -10
-2 -13 20 -13 33 0 25 6 -3 10 -14 10 -23z m230 -7 c0 -5 -5 -3 -10 5 -5 8
-10 20 -10 25 0 6 5 3 10 -5 5 -8 10 -19 10 -25z m19 -55 c0 -10 -3 -8 -9 5
-12 27 -12 43 0 25 5 -8 9 -22 9 -30z m-141 -55 c-3 -3 -9 2 -12 12 -6 14 -5
15 5 6 7 -7 10 -15 7 -18z m172 -10 c0 -5 -5 -3 -10 5 -5 8 -10 20 -10 25 0 6
5 3 10 -5 5 -8 10 -19 10 -25z m-206 10 c3 -8 1 -15 -4 -15 -6 0 -10 7 -10 15
0 8 2 15 4 15 2 0 6 -7 10 -15z m56 -50 c0 -5 -5 -3 -10 5 -5 8 -10 20 -10 25
0 6 5 3 10 -5 5 -8 10 -19 10 -25z m29 -70 c0 -5 -6 1 -14 15 -8 14 -14 30
-14 35 0 6 6 -1 14 -15 8 -14 14 -29 14 -35z m26 -45 c21 -41 19 -51 -5 -15
-11 17 -20 33 -20 38 0 15 10 6 25 -23z m59 -127 c20 -40 34 -73 31 -73 -5 0
-75 136 -75 146 0 12 6 1 44 -73z m391 -260 c1 -60 4 -119 8 -133 5 -14 1 -9
-8 10 -9 19 -19 69 -23 111 -6 62 -5 81 8 97 8 12 15 21 15 22 0 0 0 -48 0
-107z m64 -258 c0 -5 -8 6 -19 25 -11 19 -19 40 -19 45 0 6 8 -6 19 -25 11
-19 19 -39 19 -45z"/>
<path d="M7207 10314 c8 -4 6 -11 -8 -25 -10 -10 -19 -25 -19 -33 0 -8 44 -31
108 -56 149 -59 286 -129 427 -218 132 -84 323 -222 306 -222 -23 0 -9 -24 39
-72 49 -48 61 -68 40 -68 -5 0 -10 5 -10 12 0 6 -3 9 -6 5 -4 -3 12 -26 34
-49 22 -24 52 -56 67 -73 l27 -30 -27 40 c-16 22 -39 52 -52 66 -21 23 -22 27
-8 33 9 3 18 6 19 6 1 0 12 -15 25 -32 l22 -33 -26 29 c-14 15 -29 25 -32 22
-5 -5 20 -36 77 -96 15 -16 60 -80 60 -86 0 -4 -10 1 -22 12 l-22 19 20 -26
c10 -15 22 -23 25 -17 3 5 11 2 18 -6 7 -8 9 -21 5 -27 -5 -8 -3 -9 6 -4 10 6
12 4 7 -8 -4 -10 -2 -16 5 -14 6 1 13 -4 16 -12 3 -9 0 -11 -8 -6 -6 4 0 -10
14 -31 14 -22 60 -96 103 -166 82 -133 110 -165 48 -54 -51 92 -37 83 19 -11
50 -86 83 -158 67 -149 -7 5 -7 -4 0 -24 6 -16 15 -33 20 -36 5 -3 4 7 -2 23
-8 21 -7 25 1 17 7 -7 13 -23 13 -37 1 -14 5 -23 8 -21 11 6 32 -54 23 -67 -4
-7 -3 -10 3 -6 13 8 114 -236 126 -306 2 -12 9 -33 14 -47 33 -79 51 -152 108
-430 83 -405 89 -970 15 -1335 -10 -49 -26 -137 -35 -195 -11 -68 -45 -189
-96 -343 -85 -258 -160 -419 -251 -541 -48 -63 -146 -146 -175 -146 -7 0 -13
-7 -13 -15 0 -8 5 -15 11 -15 22 0 38 -35 39 -84 0 -55 -34 -194 -55 -223 -7
-9 -2 14 11 52 32 95 33 245 2 245 -5 0 -6 -10 -2 -22 10 -31 6 -124 -8 -173
-6 -22 -10 -46 -9 -54 1 -8 -2 -10 -10 -6 -7 5 -10 3 -7 -6 3 -8 -6 -26 -19
-41 -14 -14 -26 -37 -27 -51 0 -14 -4 -23 -8 -21 -10 6 -43 -56 -43 -81 0 -11
-5 -20 -11 -20 -6 0 -47 -45 -91 -100 -211 -262 -498 -477 -827 -620 -93 -40
-57 -41 46 -1 51 19 122 45 158 57 73 24 266 115 350 166 91 54 49 38 -103
-42 -79 -41 -148 -75 -153 -75 -5 0 41 28 101 61 61 34 145 86 188 115 43 30
83 51 88 48 5 -3 8 -1 7 4 -2 6 41 47 94 91 54 44 134 119 179 165 45 47 87
84 92 83 6 -1 11 5 12 13 0 14 101 150 112 150 2 0 -10 -18 -28 -41 -24 -31
-29 -43 -19 -49 7 -4 10 -13 6 -19 -5 -7 -1 -9 8 -5 9 3 14 10 11 14 -3 5 -1
11 5 15 5 3 10 1 10 -6 0 -8 4 -8 16 2 8 7 13 20 11 30 -3 12 0 16 9 12 7 -3
21 2 29 11 9 9 23 16 31 16 8 0 14 5 14 11 0 5 5 7 10 4 6 -3 10 -1 10 5 0 17
26 40 47 40 13 0 14 3 5 8 -9 6 -6 12 13 20 14 6 25 16 25 21 0 6 7 8 15 4 14
-5 14 -8 -2 -25 -17 -19 -15 -19 25 2 l42 22 47 -30 c26 -17 49 -30 50 -28 2
1 -9 32 -24 67 -23 56 -27 79 -28 189 -2 119 6 177 22 167 5 -3 9 6 10 20 0
14 7 29 14 34 7 4 10 11 7 15 -4 3 4 23 17 44 13 21 27 51 31 67 4 15 13 34
21 41 7 7 13 20 13 27 0 8 8 29 18 47 10 18 17 39 15 46 -3 6 1 12 7 12 7 0
10 7 6 16 -3 8 -2 13 3 10 26 -16 193 521 240 774 64 340 81 821 41 1125 -31
243 -81 459 -146 640 -5 14 -4 17 4 10 15 -14 74 -215 106 -355 56 -256 71
-401 70 -715 0 -304 -14 -456 -65 -725 -43 -230 -118 -507 -167 -620 -6 -14
-32 -79 -58 -145 -25 -66 -61 -152 -80 -192 -105 -226 -136 -392 -95 -515 23
-69 48 -111 60 -103 5 2 -3 28 -17 57 -14 29 -30 85 -35 124 -13 87 5 170 77
361 44 119 57 151 116 278 35 75 83 211 120 337 16 54 31 102 34 107 3 5 15
51 26 103 10 51 28 133 39 181 20 88 43 239 63 412 5 50 10 205 10 345 0 204
-4 288 -21 418 -47 355 -122 624 -259 921 -171 374 -384 674 -667 941 -189
178 -518 403 -783 533 -165 82 -326 147 -361 146 -14 0 -21 -3 -14 -5z m848
-574 c3 -6 -1 -7 -9 -4 -18 7 -21 14 -7 14 6 0 13 -4 16 -10z m310 -412 c5 4
5 1 1 -6 -4 -6 1 -24 12 -40 34 -48 72 -112 68 -112 -4 0 -87 119 -111 160 -7
12 -6 13 7 3 8 -7 19 -9 23 -5z m495 -362 c0 -5 -16 16 -35 48 -19 32 -35 61
-35 65 1 10 70 -102 70 -113z m-312 79 c-3 -3 -9 2 -12 12 -6 14 -5 15 5 6 7
-7 10 -15 7 -18z m22 -35 c6 -11 8 -20 6 -20 -3 0 -10 9 -16 20 -6 11 -8 20
-6 20 3 0 10 -9 16 -20z m60 -125 c0 -5 -5 -3 -10 5 -5 8 -10 20 -10 25 0 6 5
3 10 -5 5 -8 10 -19 10 -25z m316 -66 c19 -39 34 -73 32 -75 -2 -2 -21 30 -41
71 -20 41 -35 75 -32 75 3 0 21 -32 41 -71z m-298 26 c-3 -3 -9 2 -12 12 -6
14 -5 15 5 6 7 -7 10 -15 7 -18z m67 -140 c14 -38 22 -65 17 -60 -12 13 -64
151 -53 139 5 -5 21 -40 36 -79z m305 -50 c0 -5 -5 -3 -10 5 -5 8 -10 20 -10
25 0 6 5 3 10 -5 5 -8 10 -19 10 -25z m44 -105 c3 -14 -5 -1 -19 29 -14 29
-25 56 -25 60 1 11 37 -63 44 -89z m-280 -29 c20 -57 35 -106 33 -108 -4 -4
-77 200 -77 214 0 16 10 -9 44 -106z m315 -71 c0 -10 -3 -8 -9 5 -12 27 -12
43 0 25 5 -8 9 -22 9 -30z m-227 -220 c40 -168 78 -366 77 -398 -1 -15 -6 -2
-11 28 -11 65 -49 244 -84 390 -14 58 -27 116 -30 130 l-4 25 11 -25 c6 -14
24 -81 41 -150z m85 -462 c-3 -8 -6 -5 -6 6 -1 11 2 17 5 13 3 -3 4 -12 1 -19z
m10 -110 c-2 -13 -4 -5 -4 17 -1 22 1 32 4 23 2 -10 2 -28 0 -40z m10 -100
c-3 -7 -5 -2 -5 12 0 14 2 19 5 13 2 -7 2 -19 0 -25z m10 -95 c-3 -10 -5 -4
-5 12 0 17 2 24 5 18 2 -7 2 -21 0 -30z m0 -120 c-2 -16 -4 -3 -4 27 0 30 2
43 4 28 2 -16 2 -40 0 -55z m0 -260 c-2 -27 -3 -5 -3 47 0 52 1 74 3 48 2 -27
2 -69 0 -95z m-10 -125 c-2 -13 -4 -3 -4 22 0 25 2 35 4 23 2 -13 2 -33 0 -45z
m-10 -110 c-2 -18 -4 -6 -4 27 0 33 2 48 4 33 2 -15 2 -42 0 -60z m-10 -95
c-3 -10 -5 -2 -5 17 0 19 2 27 5 18 2 -10 2 -26 0 -35z m-12 -103 c-4 -28 -9
-49 -12 -47 -2 3 -1 28 3 56 4 28 9 50 11 47 3 -3 2 -28 -2 -56z m-35 -182
c-27 -129 -42 -190 -46 -185 -2 2 6 46 16 98 11 51 26 121 32 153 7 32 14 54
16 48 2 -6 -6 -57 -18 -114z m-61 -252 c-6 -26 -13 -45 -16 -43 -2 3 1 26 8
51 6 26 13 45 16 43 2 -3 -1 -26 -8 -51z m-164 -446 c-9 -16 -18 -30 -21 -30
-2 0 2 14 11 30 9 17 18 30 21 30 2 0 -2 -13 -11 -30z m124 -99 c-18 -39 -34
-69 -36 -68 -2 2 11 36 28 76 18 39 34 69 36 67 3 -2 -10 -36 -28 -75z m-194
-30 c-8 -17 -19 -33 -25 -36 -5 -3 -1 10 11 29 25 43 36 48 14 7z m-35 -55 c0
-2 -8 -10 -17 -17 -16 -13 -17 -12 -4 4 13 16 21 21 21 13z m183 -16 c-3 -11
-10 -23 -16 -27 -5 -3 -8 -2 -5 3 3 5 8 17 11 27 9 24 16 22 10 -3z m-213 -23
c0 -2 -12 -14 -27 -28 l-28 -24 24 28 c23 25 31 32 31 24z m166 -402 c16 -12
16 -14 3 -15 -9 0 -22 7 -29 15 -16 19 0 19 26 0z m-433 -70 c-3 -9 -8 -14
-10 -11 -3 3 -2 9 2 15 9 16 15 13 8 -4z m-724 -769 c-2 -2 -15 -9 -29 -15
-24 -11 -24 -11 -6 3 16 13 49 24 35 12z"/>
<path d="M6984 10168 l-19 -23 23 19 c21 18 27 26 19 26 -2 0 -12 -10 -23 -22z"/>
<path d="M6258 9874 c-28 -4 -39 -11 -48 -35 -7 -16 -18 -29 -24 -29 -6 0 -4
-5 4 -10 12 -8 12 -10 -5 -10 -11 0 -27 -5 -35 -11 -13 -9 -13 -10 0 -8 8 1
38 0 65 -1 30 -2 -7 -8 -95 -16 -143 -12 -251 -16 -218 -7 14 3 17 15 15 55
l-2 50 -71 -6 c-83 -7 -124 -20 -124 -40 0 -8 -4 -16 -10 -18 -5 -1 -12 -17
-16 -35 -6 -29 -4 -32 22 -36 28 -4 28 -4 -3 -6 l-33 -1 0 50 c0 29 -5 50 -11
50 -7 0 -9 -18 -6 -51 4 -45 2 -52 -14 -56 -11 -3 -18 -11 -16 -17 5 -12 8
-12 47 -2 15 3 10 -1 -13 -12 -20 -10 -34 -22 -30 -25 3 -4 11 -3 17 2 42 32
437 56 822 48 288 -5 429 -17 523 -41 28 -7 54 -10 58 -7 13 9 15 39 3 46 -5
3 -10 33 -10 66 0 38 -4 58 -10 54 -5 -3 -10 -29 -10 -57 0 -28 -3 -48 -7 -45
-4 4 -5 32 -4 62 2 40 -1 55 -11 55 -10 0 -12 -13 -9 -46 2 -31 0 -44 -7 -40
-6 3 -14 1 -18 -5 -4 -7 -3 -9 4 -5 6 3 14 1 17 -5 7 -11 -72 -6 -175 11 l-45
8 55 2 c30 1 47 4 38 7 -21 5 -23 19 -5 26 7 3 6 6 -5 6 -12 1 -15 8 -12 26 3
19 -1 26 -18 30 -13 3 -43 9 -68 15 -48 10 -441 21 -502 14z m41 -148 c-2 -2
-89 -5 -194 -8 -104 -3 -170 -2 -145 2 46 7 347 13 339 6z m666 -26 c38 -6 74
-16 80 -22 7 -8 2 -8 -20 -3 -16 4 -84 13 -150 20 -108 11 -113 13 -50 14 39
0 101 -4 140 -9z"/>
<path d="M6088 9773 c7 -3 16 -2 19 1 4 3 -2 6 -13 5 -11 0 -14 -3 -6 -6z"/>
<path d="M5514 9616 c-9 -23 3 -46 23 -45 16 0 16 1 -2 9 -43 19 25 10 93 -11
104 -34 206 -95 271 -163 19 -20 32 -38 29 -41 -3 -3 -16 7 -30 22 -13 15 -35
37 -48 48 -14 11 -1 -7 29 -40 30 -33 56 -62 58 -65 2 -2 1 3 -3 13 -3 9 -3
17 1 17 8 0 65 -125 65 -142 0 -9 -3 -8 -11 2 -8 11 -9 8 -5 -15 22 -117 26
-260 28 -1000 l3 -819 40 -24 c86 -51 -82 17 -285 115 -222 108 -377 209 -485
318 -174 173 -220 383 -128 584 24 53 98 164 124 186 l23 20 -19 -30 c-16 -26
-11 -24 36 16 108 92 266 163 448 200 53 11 113 24 134 30 l37 10 0 60 0 61
-52 -6 c-240 -29 -447 -84 -621 -164 -240 -111 -428 -287 -527 -494 -94 -195
-99 -438 -14 -609 13 -26 20 -49 17 -53 -4 -3 -1 -6 6 -6 7 0 9 -4 6 -10 -7
-12 18 -62 58 -115 44 -58 49 -63 41 -40 -7 20 -7 20 14 1 13 -11 20 -26 17
-36 -3 -10 6 -26 22 -41 l28 -24 -22 26 c-48 54 -20 38 50 -28 73 -69 214
-174 341 -254 36 -23 63 -45 60 -50 -3 -5 1 -6 9 -3 8 3 59 -19 113 -47 54
-29 166 -85 249 -124 157 -75 264 -130 230 -120 -16 5 -17 3 -8 -6 6 -6 25
-12 41 -13 17 -1 28 -4 27 -7 -4 -5 353 -179 368 -179 5 0 5 5 1 12 -4 7 -3 8
5 4 6 -4 9 -11 6 -16 -3 -5 26 -25 65 -44 73 -37 96 -44 84 -24 -4 7 -3 8 5 4
6 -4 9 -11 7 -15 -3 -4 17 -20 44 -34 55 -30 74 -35 44 -12 -18 14 -17 15 8 4
15 -7 25 -15 23 -20 -3 -4 3 -5 14 -2 10 3 22 -1 26 -8 6 -8 4 -10 -5 -4 -9 5
-11 4 -6 -4 4 -6 11 -9 16 -6 13 8 71 -30 62 -40 -4 -5 -2 -5 5 -1 20 11 137
-61 297 -183 201 -153 318 -331 348 -530 30 -201 -84 -443 -268 -572 -116 -80
-305 -146 -437 -151 -42 -1 -57 -13 -27 -21 16 -4 19 -12 15 -58 -2 -36 -1
-47 5 -34 7 17 9 17 9 3 1 -14 10 -18 45 -18 96 0 429 77 447 104 4 5 11 6 16
3 12 -8 166 66 227 109 212 151 318 287 386 494 42 127 53 207 47 339 -7 142
-30 231 -98 367 -153 307 -400 508 -987 800 -230 114 -240 120 -242 149 -1 17
-4 385 -6 819 -3 525 -1 793 6 800 12 12 13 106 1 106 -10 0 -9 32 1 40 4 3
11 59 17 126 6 66 13 135 16 154 8 55 -4 20 -20 -56 -14 -64 -15 -65 -10 -17
7 93 90 294 114 279 4 -3 22 8 39 25 17 17 36 28 41 25 5 -4 13 -1 17 5 5 8 2
10 -7 5 -8 -4 -3 1 11 13 14 11 50 32 80 47 30 14 62 32 70 40 21 18 168 57
196 51 25 -4 42 19 26 35 -6 6 -143 5 -343 -1 -342 -11 -1010 -8 -1201 5 -95
6 -108 5 -114 -10z m581 -55 c26 -9 25 -10 -15 -4 -25 3 -90 9 -145 14 l-100
8 115 -4 c63 -2 129 -8 145 -14z m-254 -68 c13 -16 12 -17 -3 -4 -10 7 -18 15
-18 17 0 8 8 3 21 -13z m93 -82 c37 -44 66 -93 66 -108 -1 -4 -10 8 -20 28
-11 20 -43 63 -72 95 -29 32 -43 52 -32 43 12 -8 38 -34 58 -58z m95 -191 c0
-10 -3 -8 -9 5 -12 27 -12 43 0 25 5 -8 9 -22 9 -30z m-22 -42 c-3 -8 -6 -5
-6 6 -1 11 2 17 5 13 3 -3 4 -12 1 -19z m30 0 c-3 -8 -6 -5 -6 6 -1 11 2 17 5
13 3 -3 4 -12 1 -19z m10 -65 c-3 -10 -5 -2 -5 17 0 19 2 27 5 18 2 -10 2 -26
0 -35z m10 -740 c-1 -131 -2 -24 -2 237 0 261 1 368 2 238 2 -131 2 -345 0
-475z m520 630 c-3 -10 -5 -4 -5 12 0 17 2 24 5 18 2 -7 2 -21 0 -30z m-657
-143 c0 -38 -1 -40 -31 -40 l-31 0 23 20 c13 10 20 19 15 20 -5 0 -2 7 5 17
13 15 11 16 -13 9 -17 -4 -28 -2 -28 4 0 5 14 10 30 10 28 0 30 -2 30 -40z
m-100 20 c-14 -4 -38 -8 -55 -8 -29 1 -29 1 5 8 50 11 83 11 50 0z m-97 -17
c-7 -2 -21 -2 -30 0 -10 3 -4 5 12 5 17 0 24 -2 18 -5z m-56 -9 c-3 -3 -12 -4
-19 -1 -8 3 -5 6 6 6 11 1 17 -2 13 -5z m-801 -436 c-9 -13 -34 -56 -57 -95
-47 -85 -61 -97 -23 -20 27 52 83 137 92 137 2 0 -3 -10 -12 -22z m1191 -540
c-1 -46 -3 -11 -3 77 0 88 2 125 3 83 2 -42 2 -114 0 -160z m-1360 25 c-2 -21
-4 -6 -4 32 0 39 2 55 4 38 2 -18 2 -50 0 -70z m77 -269 c3 -8 2 -12 -4 -9 -6
3 -10 10 -10 16 0 14 7 11 14 -7z m40 -124 c36 -50 44 -66 27 -55 -10 6 -73
105 -67 105 2 0 20 -23 40 -50z m47 -17 c13 -16 12 -17 -3 -4 -10 7 -18 15
-18 17 0 8 8 3 21 -13z m1264 -163 c3 -6 -1 -7 -9 -4 -18 7 -21 14 -7 14 6 0
13 -4 16 -10z m65 -30 c19 -11 31 -19 25 -19 -5 0 -26 8 -45 19 -19 11 -30 19
-25 19 6 0 26 -8 45 -19z m89 -46 c14 -12 -19 -1 -35 12 -18 14 -18 14 6 3 14
-6 27 -13 29 -15z m56 -32 c-3 -3 -11 0 -18 7 -9 10 -8 11 6 5 10 -3 15 -9 12
-12z m133 -52 c51 -24 91 -45 89 -47 -2 -2 -51 19 -108 47 -124 60 -112 60 19
0z m1409 -1307 c-3 -10 -5 -2 -5 17 0 19 2 27 5 18 2 -10 2 -26 0 -35z m3
-208 c-10 -75 -48 -211 -56 -203 -2 2 5 33 16 69 20 66 39 186 42 274 l2 50 4
-55 c2 -30 -2 -91 -8 -135z m-462 150 c-3 -3 -9 2 -12 12 -6 14 -5 15 5 6 7
-7 10 -15 7 -18z m65 -285 c1 -89 -3 -116 -26 -179 -14 -41 -23 -79 -20 -84 3
-6 1 -7 -4 -4 -6 4 -20 -8 -31 -26 -44 -68 -78 -110 -102 -125 -18 -10 -21
-10 -10 -1 33 30 89 107 115 158 73 146 86 252 50 431 -3 14 3 5 12 -20 10
-30 16 -79 16 -150z m216 -282 c-33 -49 -181 -191 -225 -217 -44 -26 -39 -19
26 34 107 87 132 110 171 161 46 59 63 73 28 22z m-449 -182 c0 -2 -8 -10 -17
-17 -16 -13 -17 -12 -4 4 13 16 21 21 21 13z"/>
<path d="M7098 9563 c7 -3 16 -2 19 1 4 3 -2 6 -13 5 -11 0 -14 -3 -6 -6z"/>
<path d="M6686 9353 c-6 -14 -5 -15 5 -6 7 7 10 15 7 18 -3 3 -9 -2 -12 -12z"/>
<path d="M5940 9311 c0 -6 4 -13 10 -16 6 -3 7 1 4 9 -7 18 -14 21 -14 7z"/>
<path d="M5960 9271 c0 -6 4 -13 10 -16 6 -3 7 1 4 9 -7 18 -14 21 -14 7z"/>
<path d="M6614 8914 c3 -9 7 -43 8 -77 l2 -62 6 70 6 70 2 -62 c2 -63 2 -63
31 -63 83 0 316 -69 426 -126 96 -50 197 -123 189 -136 -4 -6 -3 -8 3 -5 15
10 105 -73 99 -90 -3 -8 -2 -12 3 -9 34 21 183 -249 198 -359 7 -54 30 -56 25
-2 -2 20 -4 170 -5 333 l-2 296 -73 29 c-202 80 -492 155 -730 189 -172 25
-196 25 -188 4z m966 -709 c0 -8 -2 -15 -4 -15 -2 0 -6 7 -10 15 -3 8 -1 15 4
15 6 0 10 -7 10 -15z"/>
<path d="M4988 7285 c17 -14 33 -25 37 -25 3 0 -7 11 -23 25 -17 14 -33 25
-37 25 -3 0 7 -11 23 -25z"/>
<path d="M6015 6643 c10 -54 10 -90 2 -753 -7 -575 -17 -806 -38 -898 -5 -24
-6 -49 -3 -55 4 -7 3 -8 -2 -4 -5 5 -14 -14 -21 -45 -49 -221 -129 -393 -289
-623 -100 -143 -303 -333 -469 -441 -182 -117 -428 -228 -572 -259 -32 -6 -47
-25 -20 -25 51 1 473 117 437 120 -10 1 -9 4 5 10 28 12 43 12 25 -1 -11 -8
-9 -9 10 -4 35 10 209 89 205 93 -2 2 -29 -8 -61 -22 -94 -43 -76 -29 46 35
124 65 244 137 300 179 19 14 49 34 65 44 l30 17 -25 -20 c-14 -12 -31 -26
-37 -31 -28 -23 -141 -99 -180 -120 -24 -13 -41 -25 -39 -27 5 -5 119 61 191
109 66 45 148 110 209 163 21 19 43 32 49 28 5 -3 7 -2 4 4 -4 6 5 15 18 21
14 7 24 17 23 24 -2 7 3 12 10 10 6 -1 11 4 10 10 -2 7 3 12 10 10 8 -1 11 2
7 8 -3 5 -1 10 5 10 6 0 8 5 5 10 -4 6 -11 7 -17 4 -7 -4 -8 -2 -4 4 4 6 13 9
20 6 36 -14 337 398 371 505 6 21 13 13 55 -66 58 -110 144 -239 158 -236 5 1
18 -8 28 -20 l19 -22 -22 19 c-13 11 -23 15 -23 9 0 -12 39 -49 49 -46 3 1 8
-1 11 -4 3 -4 -1 -3 -9 2 -9 5 -12 3 -9 -6 3 -8 10 -13 16 -12 6 2 9 -3 6 -10
-5 -14 151 -179 160 -170 3 4 6 0 6 -7 0 -15 61 -76 73 -72 5 1 6 -2 3 -7 -4
-5 -2 -12 4 -16 5 -3 10 0 10 7 1 8 8 5 18 -8 10 -12 28 -26 40 -33 13 -7 19
-17 16 -23 -4 -7 -3 -8 4 -4 17 10 155 -96 139 -107 -7 -5 -3 -6 12 -2 17 5
22 4 16 -5 -5 -8 -4 -11 3 -6 14 8 113 -54 105 -67 -3 -6 -1 -7 5 -3 6 3 53
-16 104 -44 51 -27 89 -50 85 -50 -4 0 -22 7 -38 16 -17 8 -33 13 -36 11 -4
-5 102 -57 115 -57 3 0 -3 7 -14 16 -24 19 -17 17 84 -25 56 -24 78 -38 70
-44 -9 -5 -6 -6 8 -2 29 8 61 -4 42 -17 -8 -5 -2 -6 16 -2 19 5 27 3 22 -4 -4
-6 2 -8 16 -4 16 4 19 2 13 -8 -5 -9 -4 -11 4 -6 6 4 77 -9 157 -29 80 -20
148 -34 151 -32 9 10 -8 27 -27 27 -29 0 -148 39 -219 72 -36 17 -93 43 -126
58 -53 24 -92 47 -195 117 -131 88 -285 218 -371 312 -40 44 -76 78 -80 75 -4
-2 -11 1 -15 7 -4 8 -3 9 4 5 23 -14 11 10 -41 80 -28 38 -60 81 -70 95 -11
15 -10 10 3 -13 29 -50 20 -48 -14 2 -15 23 -24 46 -20 52 5 7 3 8 -6 3 -9 -6
-12 -4 -8 7 4 8 2 21 -4 29 -8 11 -9 10 -4 -3 14 -44 -9 -10 -45 66 -43 93
-52 127 -14 56 29 -55 33 -46 5 13 -44 94 -105 326 -126 477 -6 44 -9 50 -14
30 -15 -56 -32 292 -38 764 l-7 499 -93 47 c-51 26 -98 52 -105 59 -7 7 18 -3
56 -22 37 -19 79 -37 95 -41 l27 -5 -25 10 c-28 12 -35 16 -124 63 -35 19 -62
37 -59 40 4 3 -3 6 -15 6 -30 0 -281 123 -282 138 0 6 -5 12 -11 12 -8 0 -9
-12 -4 -37z m131 -55 c57 -28 102 -53 100 -55 -2 -3 -45 16 -95 41 -50 25 -97
46 -106 46 -8 0 -15 5 -15 10 0 15 5 14 116 -42z m-42 -12 c21 -9 36 -19 33
-22 -3 -3 -19 2 -35 10 l-30 16 -7 -78 c-10 -129 -12 -132 -13 -14 0 62 3 111
7 109 3 -1 23 -11 45 -21z m86 -41 c17 -9 30 -18 30 -21 0 -4 -59 23 -69 32
-10 9 13 3 39 -11z m140 -43 c-9 -3 -70 25 -70 33 0 2 18 -4 40 -13 21 -9 35
-18 30 -20z m119 -88 c14 -12 -19 -1 -35 12 -18 14 -18 14 6 3 14 -6 27 -13
29 -15z m36 -22 c-3 -3 -11 0 -18 7 -9 10 -8 11 6 5 10 -3 15 -9 12 -12z m53
-175 l-2 -152 -3 145 c-3 119 -7 147 -21 163 -16 19 -16 20 6 8 21 -11 22 -15
20 -164z m-481 56 c-2 -21 -4 -4 -4 37 0 41 2 58 4 38 2 -21 2 -55 0 -75z m0
-365 c-1 -62 -3 -14 -3 107 0 121 2 172 3 113 2 -59 2 -158 0 -220z m480 -20
c-3 -8 -6 -5 -6 6 -1 11 2 17 5 13 3 -3 4 -12 1 -19z m0 -230 c-2 -35 -3 -9
-3 57 0 66 1 94 3 63 2 -32 2 -86 0 -120z m0 -130 c-2 -13 -4 -3 -4 22 0 25 2
35 4 23 2 -13 2 -33 0 -45z m-480 -250 c-2 -29 -3 -6 -3 52 0 58 1 81 3 53 2
-29 2 -77 0 -105z m550 -240 c-2 -13 -4 -5 -4 17 -1 22 1 32 4 23 2 -10 2 -28
0 -40z m-580 -40 c-3 -8 -6 -5 -6 6 -1 11 2 17 5 13 3 -3 4 -12 1 -19z m611
-103 c0 -11 -6 3 -13 30 -7 28 -13 59 -13 70 0 11 6 -2 13 -30 7 -27 13 -59
13 -70z m9 -47 c-3 -8 -6 -5 -6 6 -1 11 2 17 5 13 3 -3 4 -12 1 -19z m-700
-60 c-3 -8 -6 -5 -6 6 -1 11 2 17 5 13 3 -3 4 -12 1 -19z m366 9 c3 -8 -1 -14
-8 -14 -7 0 -11 6 -8 14 3 7 6 13 8 13 2 0 5 -6 8 -13z m-33 -55 c0 -5 -7 -17
-15 -28 -14 -18 -14 -17 -4 9 12 27 19 34 19 19z m-381 -97 c-17 -42 -33 -75
-35 -73 -1 2 12 40 29 85 18 45 33 78 35 73 2 -5 -11 -43 -29 -85z m809 10 c0
-5 -6 4 -13 20 -8 17 -14 37 -14 45 0 8 7 -1 14 -20 7 -19 13 -39 13 -45z
m-473 5 c-9 -16 -18 -30 -21 -30 -2 0 2 14 11 30 9 17 18 30 21 30 2 0 -2 -13
-11 -30z m145 10 c6 -11 8 -20 6 -20 -3 0 -10 9 -16 20 -6 11 -8 20 -6 20 3 0
10 -9 16 -20z m28 -55 c-3 -3 -9 2 -12 12 -6 14 -5 15 5 6 7 -7 10 -15 7 -18z
m74 -112 c15 -24 26 -43 23 -43 -5 0 -76 105 -89 130 -11 23 35 -39 66 -87z
m-302 68 c-5 -11 -15 -23 -21 -27 -6 -3 -3 5 6 20 20 30 30 35 15 7z m-320
-19 c0 -5 -7 -17 -15 -28 -14 -18 -14 -17 -4 9 12 27 19 34 19 19z m-60 -109
c-18 -32 -37 -62 -43 -68 -6 -5 1 10 15 35 14 25 31 55 37 68 6 12 14 22 17
22 3 0 -9 -26 -26 -57z m330 54 c0 -2 -10 -12 -22 -23 l-23 -19 19 23 c18 21
26 27 26 19z m-70 -91 c0 -2 -8 -10 -17 -17 -16 -13 -17 -12 -4 4 13 16 21 21
21 13z m-310 -50 c0 -2 -8 -10 -17 -17 -16 -13 -17 -12 -4 4 13 16 21 21 21
13z m250 -19 c0 -2 -12 -14 -27 -28 l-28 -24 24 28 c23 25 31 32 31 24z m-296
-42 c-9 -14 -18 -25 -21 -25 -5 0 5 18 20 38 17 22 18 13 1 -13z m21 -230
c-27 -24 -52 -42 -54 -39 -2 2 7 12 20 23 13 10 35 28 49 39 47 40 35 21 -15
-23z m-605 -365 c-8 -5 -19 -10 -25 -10 -5 0 -3 5 5 10 8 5 20 10 25 10 6 0 3
-5 -5 -10z"/>
<path d="M6557 6389 c7 -7 15 -10 18 -7 3 3 -2 9 -12 12 -14 6 -15 5 -6 -5z"/>
<path d="M4669 6053 c-6 -28 -5 -128 3 -438 5 -192 9 -360 9 -372 -1 -13 4
-23 11 -23 6 0 71 -29 143 -65 120 -59 188 -86 125 -50 -38 22 -13 18 29 -5
86 -46 466 -170 690 -225 144 -35 193 -42 189 -27 -1 4 4 25 10 47 7 22 12 45
12 51 0 6 -26 16 -57 23 -163 34 -463 164 -596 258 -175 123 -310 264 -398
415 -46 78 -135 304 -145 367 -6 37 -22 65 -25 44z m46 -190 c36 -124 119
-275 222 -403 l45 -55 -46 49 c-63 66 -147 195 -186 286 -18 41 -35 77 -38 80
-2 3 -3 -125 0 -285 2 -162 1 -261 -3 -225 -7 54 -18 610 -12 610 1 0 9 -26
18 -57z m1152 -929 c-3 -3 -12 -4 -19 -1 -8 3 -5 6 6 6 11 1 17 -2 13 -5z"/>
<path d="M3840 5126 c0 -2 7 -7 16 -10 8 -3 12 -2 9 4 -6 10 -25 14 -25 6z"/>
<path d="M3818 5083 c7 -3 16 -2 19 1 4 3 -2 6 -13 5 -11 0 -14 -3 -6 -6z"/>
<path d="M8650 5070 c-8 -5 -10 -10 -5 -10 6 0 17 5 25 10 8 5 11 10 5 10 -5
0 -17 -5 -25 -10z"/>
<path d="M3725 5060 c-17 -8 -16 -9 10 -9 139 1 255 -63 487 -268 53 -47 109
-91 124 -99 14 -8 42 -28 61 -44 18 -17 38 -30 44 -30 12 0 -274 244 -380 322
-113 85 -198 127 -268 133 -32 3 -67 1 -78 -5z"/>
<path d="M8658 5037 c-73 -38 -254 -171 -313 -230 -37 -38 -38 -39 -8 -21 17
10 44 31 60 45 55 49 210 158 259 182 27 14 66 28 86 31 49 9 59 26 14 26 -20
0 -62 -14 -98 -33z"/>
<path d="M8828 5053 c7 -3 16 -2 19 1 4 3 -2 6 -13 5 -11 0 -14 -3 -6 -6z"/>
<path d="M3950 5040 c0 -5 5 -10 11 -10 5 0 7 5 4 10 -3 6 -8 10 -11 10 -2 0
-4 -4 -4 -10z"/>
<path d="M4067 4977 c-3 -8 1 -14 9 -14 16 0 19 13 5 21 -5 3 -11 0 -14 -7z"/>
<path d="M8373 4938 c-25 -32 -26 -40 -4 -26 12 7 21 18 21 25 0 16 -5 16 -17
1z"/>
<path d="M8354 4878 l-19 -23 23 19 c12 11 22 21 22 23 0 8 -8 2 -26 -19z"/>
<path d="M4360 4735 c13 -14 26 -25 28 -25 3 0 -5 11 -18 25 -13 14 -26 25
-28 25 -3 0 5 -11 18 -25z"/>
<path d="M8199 4733 c-13 -16 -12 -17 4 -4 9 7 17 15 17 17 0 8 -8 3 -21 -13z"/>
<path d="M8114 4658 l-19 -23 23 19 c21 18 27 26 19 26 -2 0 -12 -10 -23 -22z"/>
<path d="M8051 4610 c-18 -17 -29 -30 -24 -30 5 0 22 14 38 30 37 38 30 38
-14 0z"/>
<path d="M4472 4586 c15 -14 78 -49 78 -43 0 6 -75 57 -84 57 -4 0 -1 -6 6
-14z"/>
<path d="M8049 4569 c-23 -19 -23 -20 -2 -10 12 6 25 16 28 21 10 16 -1 12
-26 -11z"/>
<path d="M7941 4500 c-23 -17 -47 -28 -54 -24 -9 5 -9 4 -1 -5 9 -9 22 -5 58
19 41 28 54 40 43 40 -2 0 -23 -14 -46 -30z"/>
<path d="M6770 4511 c0 -6 4 -13 10 -16 6 -3 7 1 4 9 -7 18 -14 21 -14 7z"/>
<path d="M4600 4500 c8 -5 20 -10 25 -10 6 0 3 5 -5 10 -8 5 -19 10 -25 10 -5
0 -3 -5 5 -10z"/>
<path d="M4691 4448 c57 -35 129 -70 129 -64 0 5 -111 71 -143 84 -48 20 -43
13 14 -20z"/>
<path d="M4960 4310 c8 -5 20 -10 25 -10 6 0 3 5 -5 10 -8 5 -19 10 -25 10 -5
0 -3 -5 5 -10z"/>
<path d="M6078 4114 c-27 -15 -48 -32 -48 -39 0 -20 -28 -45 -44 -39 -7 3 -19
-2 -26 -11 -10 -13 -9 -15 7 -15 16 0 18 -6 15 -41 -4 -36 -1 -44 24 -64 28
-22 28 -24 12 -42 -22 -24 -34 -78 -19 -87 16 -10 13 -43 -4 -50 -15 -5 -22
-56 -7 -56 16 0 31 -65 24 -100 -6 -27 -16 -39 -45 -53 -36 -17 -45 -34 -28
-53 5 -5 14 -26 21 -46 11 -37 10 -39 -25 -72 -23 -22 -32 -37 -25 -41 7 -4
10 -18 7 -31 -2 -13 -1 -21 3 -19 5 3 10 -1 13 -9 3 -7 19 -16 36 -19 21 -4
38 -18 51 -39 50 -84 95 -110 145 -84 17 9 50 16 75 16 25 0 53 7 63 14 9 7
28 11 42 8 14 -2 32 1 39 7 12 10 20 9 40 -4 21 -14 31 -15 59 -6 39 13 81 2
90 -23 8 -20 39 -20 77 -1 25 13 33 13 70 0 57 -20 57 -20 64 18 3 19 17 44
31 57 14 13 25 28 25 33 0 5 8 16 18 23 16 13 16 14 -5 20 -12 3 -26 19 -32
35 -5 16 -18 32 -28 35 -57 18 -83 39 -83 66 0 14 -7 34 -16 43 -18 17 -14 46
13 103 22 45 8 82 -37 103 -27 13 -36 24 -40 50 -4 30 -9 34 -38 37 -18 2 -36
10 -39 18 -3 8 -14 14 -24 14 -10 0 -20 6 -21 13 0 6 -2 17 -3 22 -2 6 -3 16
-4 23 0 6 -14 12 -30 12 -56 0 -81 16 -81 52 0 33 -27 68 -62 81 -12 4 -18 17
-18 36 0 36 -10 43 -66 46 -48 2 -81 24 -86 58 -4 30 -25 30 -80 1z"/>
<path d="M5335 3789 c-16 -10 -25 -19 -19 -19 7 0 22 9 35 20 30 24 23 24 -16
-1z"/>
<path d="M7220 3802 c0 -5 16 -16 35 -25 19 -9 35 -15 35 -13 0 2 -16 13 -35
25 -19 11 -35 17 -35 13z"/>
<path d="M7430 3694 c0 -7 71 -36 76 -31 2 2 -14 11 -36 20 -22 8 -40 13 -40
11z"/>
</g>
</svg>
